<svg width="432" height="247" viewBox="0 0 432 247" fill="none" xmlns="http://www.w3.org/2000/svg">
<g clip-path="url(#clip0_3585_9418)">
<mask id="mask0_3585_9418" style="mask-type:luminance" maskUnits="userSpaceOnUse" x="-1" y="0" width="432" height="246">
<path d="M431 0H-0.00195312V245.753H431V0Z" fill="white"/>
</mask>
<g mask="url(#mask0_3585_9418)">
<path d="M123.6 242.588C116.202 225.856 108.805 209.124 101.407 192.392C96.2283 180.677 90.4638 168.271 79.5868 161.505C73.7184 157.855 65.5468 156.399 60.1914 160.764C56.4262 163.833 55.0465 168.916 54.223 173.702C50.1163 197.577 54.8629 222.871 68.7463 244.055C87.2724 244.885 106.99 243.37 123.6 242.588Z" fill="#514DF7" stroke="black" stroke-linecap="round" stroke-linejoin="round"/>
<path d="M68.3193 166.413C74.177 191.832 81.5237 216.908 90.3095 241.469" stroke="black" stroke-linecap="round" stroke-linejoin="round"/>
<path d="M79.2094 244.43C72.2758 230.849 65.3233 217.237 56.956 204.489C50.9323 195.313 43.6585 186.2 33.4147 182.253C29.794 180.858 25.5955 180.206 22.1112 181.913C18.1692 183.845 16.1064 188.334 15.4597 192.675C14.053 202.109 17.8884 211.499 22.257 219.981C26.3866 227.998 31.0698 235.729 38.0317 243.739C54.7447 243.952 66.5707 244.269 79.2094 244.431V244.43Z" fill="#514DF7" stroke="black" stroke-linecap="round" stroke-linejoin="round"/>
<path d="M26.5391 184.707C35.3357 204.649 45.5417 223.969 57.0531 242.478L26.5391 184.707Z" fill="#514DF7"/>
<path d="M26.5391 184.707C35.3357 204.649 45.5417 223.969 57.0531 242.478" stroke="black" stroke-linecap="round" stroke-linejoin="round"/>
<path d="M333.035 233.191C346.603 176.903 357.736 122.234 371.966 62.4035C373.04 57.89 369.6 53.556 364.96 53.5654C280.32 53.7342 219.172 55.4551 141.234 55.5914C137.303 55.5981 133.894 58.3111 133.021 62.1443C120.938 115.118 106.793 177.203 98.3809 232.738C172.081 232.738 253.169 233.192 333.037 233.192L333.035 233.191Z" fill="#6F42C1" stroke="black" stroke-linecap="round" stroke-linejoin="round"/>
<path d="M322.534 215.349C335.263 164.071 345.785 113.646 359.435 58.6631C277.356 58.6631 218.619 61.0777 143.588 61.0777C132.505 108.28 118.921 165.371 111.086 215.597C177.004 215.597 251.101 215.349 322.534 215.349Z" fill="white" stroke="black" stroke-linecap="round" stroke-linejoin="round"/>
<path d="M225.749 182.758C209.543 167.9 193.173 152.517 177.498 137.084C164.783 152.691 139.315 183.079 139.315 183.079C139.315 183.079 194.719 181.986 225.749 182.758Z" fill="black"/>
<path d="M225.749 182.758C209.543 167.9 193.173 152.517 177.498 137.084C164.783 152.691 139.315 183.079 139.315 183.079C139.315 183.079 194.719 181.986 225.749 182.758Z" stroke="black" stroke-linecap="round" stroke-linejoin="round"/>
<path d="M198.663 184.552C218.184 159.345 257.497 104.481 257.497 104.481L317.178 185.067C317.178 185.067 239.361 184.959 198.663 184.552Z" fill="#514DF7"/>
<path d="M198.663 184.552C218.184 159.345 257.497 104.481 257.497 104.481L317.178 185.067C317.178 185.067 239.361 184.959 198.663 184.552Z" stroke="black" stroke-linecap="round" stroke-linejoin="round"/>
<path d="M202.609 93.2337C195.884 93.1179 189.9 100.797 190.697 106.935C191.248 111.175 196.166 114.772 200.774 115.35C205.278 115.918 211.138 114.42 213.738 111.007C216.339 107.594 215.487 102.657 212.743 99.3179C210 95.9785 204.434 93.2632 202.609 93.2337Z" fill="white" stroke="black" stroke-linecap="round" stroke-linejoin="round"/>
<path d="M332.845 232.507C332.672 233.618 332.588 234.597 332.552 235.501C332.348 240.668 328.083 244.741 322.91 244.74C213.406 244.724 117.943 244.442 7.13137 244.428C3.07192 244.428 0.132968 240.541 1.24807 236.639C1.26022 236.598 1.27102 236.558 1.28317 236.519C2.04997 233.837 4.52317 232.012 7.31227 232.086C52.6453 233.294 258.246 232.506 332.845 232.506V232.507Z" fill="#6F42C1" stroke="black" stroke-linecap="round" stroke-linejoin="round"/>
<path d="M166.928 232.471C165.384 232.747 164.034 233.779 163.184 235.096C162.333 236.413 161.951 237.994 161.893 239.561C161.851 240.678 161.981 241.842 162.553 242.803C163.126 243.764 164.218 244.474 165.327 244.335" stroke="black" stroke-linecap="round" stroke-linejoin="round"/>
<path d="M294.229 23.1054C290.443 26.3906 288.641 31.8894 289.717 36.8645C290.793 41.8396 294.703 46.0778 299.499 47.4707C304.296 48.8636 313.625 45.635 317.06 41.9692C316.195 36.0884 304.533 18.9442 303.037 18.1762C301.829 17.5553 298.472 19.2668 294.229 23.1054Z" fill="white" stroke="black" stroke-linecap="round" stroke-linejoin="round"/>
<path d="M354.167 18.6934L416.266 129.177" stroke="black" stroke-linecap="round" stroke-linejoin="round"/>
<path d="M360.128 11.3193L423.748 122.28" stroke="black" stroke-linecap="round" stroke-linejoin="round"/>
<path d="M418.402 130.414C403.305 156.395 370.262 211.356 357.575 235.207" stroke="black" stroke-linecap="round" stroke-linejoin="round"/>
<path d="M427.483 130.736C408.39 167.047 371.152 228.926 367.68 235.529" stroke="black" stroke-linecap="round" stroke-linejoin="round"/>
<path d="M386.441 236.766C376.458 235.851 350.916 234.878 340.969 236.121C339.179 236.345 337.309 236.637 335.86 237.714C334.412 238.791 333.572 240.907 334.492 242.462C335.508 244.18 337.899 244.31 339.892 244.236C349.435 243.881 374.438 244.663 383.98 244.308C385.184 244.264 386.415 244.213 387.533 243.763C388.651 243.314 389.651 242.378 389.836 241.188C390.132 239.278 388.593 236.963 386.441 236.766Z" fill="white" stroke="black" stroke-linecap="round" stroke-linejoin="round"/>
<path d="M356.12 21.0645C360.45 21.0645 363.958 17.5529 363.958 13.2212C363.958 8.88947 360.45 5.37793 356.12 5.37793C351.791 5.37793 348.282 8.88947 348.282 13.2212C348.282 17.5529 351.791 21.0645 356.12 21.0645Z" fill="black" stroke="black" stroke-linecap="round" stroke-linejoin="round"/>
<path d="M422.15 137.019C426.479 137.019 429.988 133.507 429.988 129.175C429.988 124.844 426.479 121.332 422.15 121.332C417.82 121.332 414.312 124.844 414.312 129.175C414.312 133.507 417.82 137.019 422.15 137.019Z" fill="black" stroke="black" stroke-linecap="round" stroke-linejoin="round"/>
<path d="M323.415 16.9669L355.159 8.08976C355.159 8.08976 355.307 8.07491 355.383 8.07626" stroke="black" stroke-linecap="round" stroke-linejoin="round"/>
<path d="M328.378 25.9561C328.378 25.9561 346.726 20.7111 356.99 17.415" stroke="black" stroke-linecap="round" stroke-linejoin="round"/>
<path d="M324.732 58.6987C311.751 46.5566 295.552 23.5141 286.866 5.41422C311.035 -5.88975 326.404 7.4739 330.691 13.2089C337.628 22.4869 341.977 46.4756 324.734 58.7001L324.732 58.6987Z" fill="white" stroke="black" stroke-linecap="round" stroke-linejoin="round"/>
</g>
</g>
<defs>
<clipPath id="clip0_3585_9418">
<rect width="432" height="247" fill="white"/>
</clipPath>
</defs>
</svg>
